# xmcd
#
# Track frame offsets:
#	150
#	13365
#	27867
#	45287
#	62142
#	80977
#	93560
#	113940
#	126302
#	140012
#	155870
#	170752
#	190000
#	207090
#	220942
#	234540
#	254705
#
# Disc length: 3615 seconds
#
# Revision: 1
# Processed by: cddbd v1.5.1PL0 Copyright (c) Steve Scherf et al.
# Submitted via: dBpowerAMP V4.0
#
DISCID=050e1d11
DTITLE=hnos barron - 14
DYEAR=1900
DGENRE=Pop-Folk
TTITLE0=16 tons
TTITLE1=tu ausencia
TTITLE2=el hijo de su
TTITLE3=pancho lopez
TTITLE4=el viboron
TTITLE5=quinto patio
TTITLE6=la ventana sonica
TTITLE7=rueditas de amor
TTITLE8=respeta mi dolor
TTITLE9=la mujer de juan
TTITLE10=el gavilan pollero
TTITLE11=el corrido del mojado
TTITLE12=el trenecito
TTITLE13=las montoneras
TTITLE14=en la enorme distancia
TTITLE15=la canalla
TTITLE16=x
EXTD=
EXTT0=
EXTT1=
EXTT2=
EXTT3=
EXTT4=
EXTT5=
EXTT6=
EXTT7=
EXTT8=
EXTT9=
EXTT10=
EXTT11=
EXTT12=
EXTT13=
EXTT14=
EXTT15=
EXTT16=
PLAYORDER=
